<svg width="16" height="16" viewBox="0 0 16 16" fill="none" xmlns="http://www.w3.org/2000/svg">
<path fill-rule="evenodd" clip-rule="evenodd" d="M8.73506 1.79739C9.44822 1.44832 10.0703 1.33334 11.0354 1.33335C13.5053 1.34358 15.3333 3.42657 15.3333 6.07993C15.3333 8.10518 14.2041 10.0615 12.1007 11.9533C10.9967 12.9462 9.58708 13.9289 8.57756 14.4517L7.99996 14.7508L7.42236 14.4517C6.41284 13.9289 5.00322 12.9462 3.89919 11.9533C1.79585 10.0615 0.666626 8.10518 0.666626 6.07993C0.666626 3.39819 2.47758 1.33334 4.96966 1.33334C5.90015 1.33334 6.55417 1.45919 7.28117 1.81877C7.53428 1.94396 7.77209 2.09245 7.99327 2.26385C8.22332 2.08227 8.47103 1.92663 8.73506 1.79739Z" fill="white"/>
</svg>
