<svg width="16" height="16" viewBox="0 0 16 16" fill="none" xmlns="http://www.w3.org/2000/svg">
<path fill-rule="evenodd" clip-rule="evenodd" d="M11.0355 1.33335C10.0704 1.33334 9.44825 1.44832 8.73509 1.79739C8.47106 1.92663 8.22335 2.08227 7.9933 2.26385C7.77212 2.09245 7.53431 1.94396 7.2812 1.81877C6.5542 1.45919 5.90018 1.33334 4.96969 1.33334C2.47761 1.33334 0.666656 3.39819 0.666656 6.07993C0.666656 8.10518 1.79588 10.0615 3.89922 11.9533C5.00325 12.9462 6.41287 13.9289 7.42239 14.4517L7.99999 14.7508L8.57759 14.4517C9.58711 13.9289 10.9967 12.9462 12.1008 11.9533C14.2041 10.0615 15.3333 8.10518 15.3333 6.07993C15.3333 3.42657 13.5053 1.34358 11.0355 1.33335ZM14 6.07993C14 7.66661 13.0574 9.29955 11.2091 10.9619C10.2014 11.8682 8.90596 12.774 7.99999 13.2491C7.09402 12.774 5.79854 11.8682 4.79084 10.9619C2.94254 9.29955 1.99999 7.66661 1.99999 6.07993C1.99999 4.09849 3.25575 2.66668 4.96969 2.66668C5.70951 2.66668 6.16541 2.7544 6.69008 3.01391C6.99999 3.16719 7.27391 3.36959 7.51101 3.62252L8.00155 4.14581L8.48762 3.61838C8.73006 3.35531 9.008 3.1483 9.32127 2.99496C9.83057 2.74567 10.258 2.66668 11.0327 2.66668C12.7255 2.6737 14 4.12599 14 6.07993Z" fill="white"/>
</svg>
