<svg width="16" height="16" viewBox="0 0 16 16" fill="none" xmlns="http://www.w3.org/2000/svg">
<path fill-rule="evenodd" clip-rule="evenodd" d="M14.6667 13.3333V8.66667H13.3333V13.3333H2.66668V2.66667H7.33334V1.33333H2.66668C1.9303 1.33333 1.33334 1.93029 1.33334 2.66667V13.3333C1.33334 14.0697 1.9303 14.6667 2.66668 14.6667H13.3333C14.0697 14.6667 14.6667 14.0697 14.6667 13.3333ZM12.7854 1.81561C12.4798 1.50761 12.0614 1.33333 11.6249 1.33333C11.1889 1.33333 10.7709 1.50722 10.4636 1.81642L4.88434 7.39561C4.38579 7.83489 4.05897 8.48856 4.00218 9.19153L4.00001 11.3349V12.0016H6.75641C7.51261 11.9497 8.17269 11.6197 8.63835 11.0825L14.186 5.53722C14.4938 5.22944 14.6667 4.81199 14.6667 4.37672C14.6667 3.94144 14.4938 3.524 14.186 3.21621L12.7854 1.81561ZM6.70933 10.6699C7.06548 10.6447 7.397 10.4789 7.66321 10.1744L11.7045 6.13315L9.86829 4.29684L5.79741 8.36639C5.52731 8.60528 5.36022 8.93949 5.33334 9.24522V10.6686L6.70933 10.6699ZM10.8112 3.35419L12.6473 5.19034L13.2432 4.59441C13.3009 4.53668 13.3334 4.45837 13.3334 4.37672C13.3334 4.29507 13.3009 4.21676 13.2432 4.15902L11.8408 2.75657C11.7837 2.69903 11.706 2.66667 11.6249 2.66667C11.5439 2.66667 11.4662 2.69903 11.4091 2.75657L10.8112 3.35419Z" fill="white"/>
</svg>
