<svg width="17" height="17" viewBox="0 0 17 17" fill="none" xmlns="http://www.w3.org/2000/svg">
<path fill-rule="evenodd" clip-rule="evenodd" d="M8.5 16.0166C4.34866 16.0166 0.983337 12.6513 0.983337 8.49997C0.983337 4.34863 4.34866 0.983307 8.5 0.983307C12.6513 0.983307 16.0167 4.34863 16.0167 8.49997C16.0167 12.6513 12.6513 16.0166 8.5 16.0166ZM8.5 14.65C11.8966 14.65 14.65 11.8965 14.65 8.49997C14.65 5.10342 11.8966 2.34997 8.5 2.34997C5.10345 2.34997 2.35 5.10342 2.35 8.49997C2.35 11.8965 5.10345 14.65 8.5 14.65ZM11.9167 7.81664H9.18334V4.39997H7.81667V9.18331H11.9167V7.81664Z" fill="#E54A2D"/>
</svg>
