<svg width="17" height="17" viewBox="0 0 17 17" fill="none" xmlns="http://www.w3.org/2000/svg">
<path fill-rule="evenodd" clip-rule="evenodd" d="M6.44996 0.983337H10.55C11.3047 0.983337 11.9166 1.59521 11.9166 2.35V3.03334H13.9666C14.7214 3.03334 15.3333 3.64521 15.3333 4.4V5.76667C15.3333 6.52146 14.7214 7.13334 13.9666 7.13334H13.9119L13.2833 14.65C13.2833 15.4048 12.6714 16.0167 11.9166 16.0167H5.08329C4.3285 16.0167 3.71662 15.4048 3.71899 14.7067L3.08787 7.13334H3.03329C2.2785 7.13334 1.66663 6.52146 1.66663 5.76667V4.4C1.66663 3.64521 2.2785 3.03334 3.03329 3.03334H5.08329V2.35C5.08329 1.59521 5.69517 0.983337 6.44996 0.983337ZM3.03329 4.4L5.08329 4.4H11.9166L13.9666 4.4V5.76667H3.03329V4.4ZM4.45906 7.13334H12.5406L11.919 14.5933L11.9166 14.65H5.08329L4.45906 7.13334ZM10.55 2.35V3.03334H6.44996V2.35H10.55Z" fill="white"/>
</svg>
